<mxfile host="app.diagrams.net" modified="2020-06-08T07:30:11.243Z" agent="Mozilla/5.0 (Windows NT 10.0; Win64; x64) AppleWebKit/537.36 (KHTML, like Gecko) Chrome/83.0.4103.97 Safari/537.36" etag="_B2xtEKXqF9XRjbUIAyt" version="12.9.3" type="github">
  <diagram id="33YDO3Ga1_ZtP02fOcqN" name="第 1 页">
    <mxGraphModel dx="1662" dy="785" grid="1" gridSize="10" guides="1" tooltips="1" connect="1" arrows="1" fold="1" page="1" pageScale="1" pageWidth="1654" pageHeight="1169" math="0" shadow="0">
      <root>
        <mxCell id="0" />
        <mxCell id="1" parent="0" />
        <mxCell id="5smV_ZLJznFOm1sXNjk2-64" value="Entity" style="rounded=1;arcSize=10;whiteSpace=wrap;html=1;align=center;fillColor=#FFFFCC;" vertex="1" parent="1">
          <mxGeometry x="300" y="308.5" width="1280" height="90" as="geometry" />
        </mxCell>
        <mxCell id="5smV_ZLJznFOm1sXNjk2-3" style="edgeStyle=orthogonalEdgeStyle;rounded=0;orthogonalLoop=1;jettySize=auto;html=1;exitX=1;exitY=0.5;exitDx=0;exitDy=0;" edge="1" parent="1" source="5smV_ZLJznFOm1sXNjk2-2">
          <mxGeometry relative="1" as="geometry">
            <mxPoint x="340" y="345" as="targetPoint" />
          </mxGeometry>
        </mxCell>
        <mxCell id="5smV_ZLJznFOm1sXNjk2-2" value="" style="ellipse;html=1;shape=endState;fillColor=#000000;strokeColor=#ff0000;" vertex="1" parent="1">
          <mxGeometry x="210" y="330" width="30" height="30" as="geometry" />
        </mxCell>
        <mxCell id="5smV_ZLJznFOm1sXNjk2-9" value="" style="edgeStyle=orthogonalEdgeStyle;rounded=0;orthogonalLoop=1;jettySize=auto;html=1;entryX=0;entryY=0.5;entryDx=0;entryDy=0;exitX=0.5;exitY=0;exitDx=0;exitDy=0;" edge="1" parent="1" source="5smV_ZLJznFOm1sXNjk2-4" target="5smV_ZLJznFOm1sXNjk2-10">
          <mxGeometry relative="1" as="geometry">
            <mxPoint x="420" y="230" as="targetPoint" />
          </mxGeometry>
        </mxCell>
        <mxCell id="5smV_ZLJznFOm1sXNjk2-30" value="成功" style="text;html=1;align=center;verticalAlign=middle;resizable=0;points=[];labelBackgroundColor=#ffffff;" vertex="1" connectable="0" parent="5smV_ZLJznFOm1sXNjk2-9">
          <mxGeometry x="0.414" y="-4" relative="1" as="geometry">
            <mxPoint x="1" y="1" as="offset" />
          </mxGeometry>
        </mxCell>
        <mxCell id="5smV_ZLJznFOm1sXNjk2-12" style="edgeStyle=orthogonalEdgeStyle;rounded=0;orthogonalLoop=1;jettySize=auto;html=1;exitX=0.5;exitY=1;exitDx=0;exitDy=0;entryX=0;entryY=0.5;entryDx=0;entryDy=0;" edge="1" parent="1" source="5smV_ZLJznFOm1sXNjk2-4" target="5smV_ZLJznFOm1sXNjk2-7">
          <mxGeometry relative="1" as="geometry" />
        </mxCell>
        <mxCell id="5smV_ZLJznFOm1sXNjk2-33" value="失败" style="text;html=1;align=center;verticalAlign=middle;resizable=0;points=[];labelBackgroundColor=#ffffff;" vertex="1" connectable="0" parent="5smV_ZLJznFOm1sXNjk2-12">
          <mxGeometry x="0.5132" y="-2" relative="1" as="geometry">
            <mxPoint y="1" as="offset" />
          </mxGeometry>
        </mxCell>
        <mxCell id="5smV_ZLJznFOm1sXNjk2-13" style="edgeStyle=orthogonalEdgeStyle;rounded=0;orthogonalLoop=1;jettySize=auto;html=1;exitX=0.5;exitY=1;exitDx=0;exitDy=0;entryX=0.5;entryY=1;entryDx=0;entryDy=0;" edge="1" parent="1" source="5smV_ZLJznFOm1sXNjk2-7" target="5smV_ZLJznFOm1sXNjk2-2">
          <mxGeometry relative="1" as="geometry" />
        </mxCell>
        <mxCell id="5smV_ZLJznFOm1sXNjk2-21" style="edgeStyle=orthogonalEdgeStyle;rounded=0;orthogonalLoop=1;jettySize=auto;html=1;entryX=0;entryY=0.5;entryDx=0;entryDy=0;" edge="1" parent="1" source="5smV_ZLJznFOm1sXNjk2-10" target="5smV_ZLJznFOm1sXNjk2-15">
          <mxGeometry relative="1" as="geometry" />
        </mxCell>
        <mxCell id="5smV_ZLJznFOm1sXNjk2-38" style="edgeStyle=orthogonalEdgeStyle;rounded=0;orthogonalLoop=1;jettySize=auto;html=1;exitX=0.5;exitY=0;exitDx=0;exitDy=0;entryX=0.5;entryY=0;entryDx=0;entryDy=0;" edge="1" parent="1" source="5smV_ZLJznFOm1sXNjk2-10" target="5smV_ZLJznFOm1sXNjk2-2">
          <mxGeometry relative="1" as="geometry">
            <mxPoint x="230" y="320" as="targetPoint" />
            <Array as="points">
              <mxPoint x="660" y="160" />
              <mxPoint x="220" y="160" />
              <mxPoint x="220" y="320" />
              <mxPoint x="225" y="320" />
            </Array>
          </mxGeometry>
        </mxCell>
        <mxCell id="5smV_ZLJznFOm1sXNjk2-39" value="删除未发布视频" style="text;html=1;align=center;verticalAlign=middle;resizable=0;points=[];labelBackgroundColor=#ffffff;" vertex="1" connectable="0" parent="5smV_ZLJznFOm1sXNjk2-38">
          <mxGeometry x="-0.0644" y="-1" relative="1" as="geometry">
            <mxPoint as="offset" />
          </mxGeometry>
        </mxCell>
        <mxCell id="5smV_ZLJznFOm1sXNjk2-10" value="上传成功" style="swimlane;childLayout=stackLayout;horizontal=1;startSize=30;horizontalStack=0;fillColor=#66CC00;fontColor=#FFFFFF;rounded=1;fontSize=14;fontStyle=0;strokeWidth=2;resizeParent=0;resizeLast=1;shadow=0;dashed=0;align=center;" vertex="1" parent="1">
          <mxGeometry x="580" y="200" width="160" height="69" as="geometry" />
        </mxCell>
        <mxCell id="5smV_ZLJznFOm1sXNjk2-29" value="上传成功&lt;br&gt;未发布" style="text;html=1;align=center;verticalAlign=middle;resizable=0;points=[];autosize=1;" vertex="1" parent="5smV_ZLJznFOm1sXNjk2-10">
          <mxGeometry y="30" width="160" height="39" as="geometry" />
        </mxCell>
        <mxCell id="5smV_ZLJznFOm1sXNjk2-27" style="edgeStyle=orthogonalEdgeStyle;rounded=0;orthogonalLoop=1;jettySize=auto;html=1;entryX=0;entryY=0.5;entryDx=0;entryDy=0;" edge="1" parent="1" source="5smV_ZLJznFOm1sXNjk2-15" target="5smV_ZLJznFOm1sXNjk2-26">
          <mxGeometry relative="1" as="geometry" />
        </mxCell>
        <mxCell id="5smV_ZLJznFOm1sXNjk2-55" value="成功" style="text;html=1;align=center;verticalAlign=middle;resizable=0;points=[];labelBackgroundColor=#ffffff;" vertex="1" connectable="0" parent="5smV_ZLJznFOm1sXNjk2-27">
          <mxGeometry x="0.6138" relative="1" as="geometry">
            <mxPoint y="1" as="offset" />
          </mxGeometry>
        </mxCell>
        <mxCell id="5smV_ZLJznFOm1sXNjk2-28" style="edgeStyle=orthogonalEdgeStyle;rounded=0;orthogonalLoop=1;jettySize=auto;html=1;entryX=-0.006;entryY=0.358;entryDx=0;entryDy=0;entryPerimeter=0;" edge="1" parent="1" source="5smV_ZLJznFOm1sXNjk2-15" target="5smV_ZLJznFOm1sXNjk2-23">
          <mxGeometry relative="1" as="geometry" />
        </mxCell>
        <mxCell id="5smV_ZLJznFOm1sXNjk2-53" value="发布" style="text;html=1;align=center;verticalAlign=middle;resizable=0;points=[];labelBackgroundColor=#ffffff;" vertex="1" connectable="0" parent="5smV_ZLJznFOm1sXNjk2-28">
          <mxGeometry x="-0.6148" y="1" relative="1" as="geometry">
            <mxPoint y="1" as="offset" />
          </mxGeometry>
        </mxCell>
        <mxCell id="5smV_ZLJznFOm1sXNjk2-54" value="发布失败" style="text;html=1;align=center;verticalAlign=middle;resizable=0;points=[];labelBackgroundColor=#ffffff;" vertex="1" connectable="0" parent="5smV_ZLJznFOm1sXNjk2-28">
          <mxGeometry x="0.6145" y="-4" relative="1" as="geometry">
            <mxPoint x="-1" as="offset" />
          </mxGeometry>
        </mxCell>
        <mxCell id="5smV_ZLJznFOm1sXNjk2-25" style="edgeStyle=orthogonalEdgeStyle;rounded=0;orthogonalLoop=1;jettySize=auto;html=1;entryX=0.5;entryY=1;entryDx=0;entryDy=0;" edge="1" parent="1" source="5smV_ZLJznFOm1sXNjk2-23" target="5smV_ZLJznFOm1sXNjk2-2">
          <mxGeometry relative="1" as="geometry">
            <Array as="points">
              <mxPoint x="1260" y="570" />
              <mxPoint x="225" y="570" />
            </Array>
          </mxGeometry>
        </mxCell>
        <mxCell id="5smV_ZLJznFOm1sXNjk2-42" style="edgeStyle=orthogonalEdgeStyle;rounded=0;orthogonalLoop=1;jettySize=auto;html=1;entryX=0.5;entryY=0;entryDx=0;entryDy=0;" edge="1" parent="1" source="5smV_ZLJznFOm1sXNjk2-26" target="5smV_ZLJznFOm1sXNjk2-51">
          <mxGeometry relative="1" as="geometry">
            <mxPoint x="1375" y="340" as="targetPoint" />
          </mxGeometry>
        </mxCell>
        <mxCell id="5smV_ZLJznFOm1sXNjk2-47" style="edgeStyle=orthogonalEdgeStyle;rounded=0;orthogonalLoop=1;jettySize=auto;html=1;entryX=0.625;entryY=0;entryDx=0;entryDy=0;entryPerimeter=0;" edge="1" parent="1" source="5smV_ZLJznFOm1sXNjk2-26" target="5smV_ZLJznFOm1sXNjk2-15">
          <mxGeometry relative="1" as="geometry">
            <mxPoint x="1010" y="184" as="targetPoint" />
            <Array as="points">
              <mxPoint x="1260" y="184" />
              <mxPoint x="940" y="184" />
            </Array>
          </mxGeometry>
        </mxCell>
        <mxCell id="5smV_ZLJznFOm1sXNjk2-26" value="发布成功" style="swimlane;childLayout=stackLayout;horizontal=1;startSize=30;horizontalStack=0;fillColor=#66CC00;fontColor=#FFFFFF;rounded=1;fontSize=14;fontStyle=0;strokeWidth=2;resizeParent=0;resizeLast=1;shadow=0;dashed=0;align=center;" vertex="1" parent="1">
          <mxGeometry x="1180" y="204" width="160" height="77" as="geometry" />
        </mxCell>
        <mxCell id="5smV_ZLJznFOm1sXNjk2-48" style="edgeStyle=orthogonalEdgeStyle;rounded=0;orthogonalLoop=1;jettySize=auto;html=1;entryX=0.5;entryY=0;entryDx=0;entryDy=0;" edge="1" parent="1" target="5smV_ZLJznFOm1sXNjk2-2">
          <mxGeometry relative="1" as="geometry">
            <mxPoint x="900" y="330" as="sourcePoint" />
            <Array as="points">
              <mxPoint x="900" y="100" />
              <mxPoint x="220" y="100" />
              <mxPoint x="220" y="330" />
            </Array>
          </mxGeometry>
        </mxCell>
        <mxCell id="5smV_ZLJznFOm1sXNjk2-49" value="删除已取消发布视频" style="text;html=1;align=center;verticalAlign=middle;resizable=0;points=[];labelBackgroundColor=#ffffff;" vertex="1" connectable="0" parent="5smV_ZLJznFOm1sXNjk2-48">
          <mxGeometry x="-0.4388" y="-1" relative="1" as="geometry">
            <mxPoint as="offset" />
          </mxGeometry>
        </mxCell>
        <mxCell id="5smV_ZLJznFOm1sXNjk2-50" value="取消发布" style="text;html=1;align=center;verticalAlign=middle;resizable=0;points=[];autosize=1;" vertex="1" parent="1">
          <mxGeometry x="1100" y="160" width="60" height="20" as="geometry" />
        </mxCell>
        <mxCell id="5smV_ZLJznFOm1sXNjk2-60" value="" style="ellipse;html=1;shape=endState;fillColor=#000000;strokeColor=#ff0000;" vertex="1" parent="1">
          <mxGeometry x="1470" y="520" width="30" height="30" as="geometry" />
        </mxCell>
        <mxCell id="5smV_ZLJznFOm1sXNjk2-61" style="edgeStyle=orthogonalEdgeStyle;rounded=0;orthogonalLoop=1;jettySize=auto;html=1;exitX=0.5;exitY=1;exitDx=0;exitDy=0;" edge="1" parent="1" source="5smV_ZLJznFOm1sXNjk2-51" target="5smV_ZLJznFOm1sXNjk2-60">
          <mxGeometry relative="1" as="geometry">
            <mxPoint x="1480" y="395" as="sourcePoint" />
          </mxGeometry>
        </mxCell>
        <mxCell id="5smV_ZLJznFOm1sXNjk2-4" value="上传中" style="swimlane;childLayout=stackLayout;horizontal=1;startSize=69;horizontalStack=0;fillColor=#004C99;fontColor=#FFFFFF;rounded=1;fontSize=14;fontStyle=0;strokeWidth=2;resizeParent=0;resizeLast=1;shadow=0;dashed=0;align=center;" vertex="1" parent="1">
          <mxGeometry x="340" y="330" width="140" height="41" as="geometry" />
        </mxCell>
        <mxCell id="5smV_ZLJznFOm1sXNjk2-15" value="未发布" style="swimlane;childLayout=stackLayout;horizontal=1;startSize=68;horizontalStack=0;fillColor=#004C99;fontColor=#FFFFFF;rounded=1;fontSize=14;fontStyle=0;strokeWidth=2;resizeParent=0;resizeLast=1;shadow=0;dashed=0;align=center;" vertex="1" parent="1">
          <mxGeometry x="860" y="325.5" width="117.65" height="50" as="geometry" />
        </mxCell>
        <mxCell id="5smV_ZLJznFOm1sXNjk2-51" value="已发布" style="swimlane;childLayout=stackLayout;horizontal=1;startSize=68;horizontalStack=0;fillColor=#004C99;fontColor=#FFFFFF;rounded=1;fontSize=14;fontStyle=0;strokeWidth=2;resizeParent=0;resizeLast=1;shadow=0;dashed=0;align=center;" vertex="1" parent="1">
          <mxGeometry x="1420" y="321" width="130" height="49" as="geometry" />
        </mxCell>
        <mxCell id="5smV_ZLJznFOm1sXNjk2-7" value="上传失败" style="swimlane;childLayout=stackLayout;horizontal=1;startSize=30;horizontalStack=0;fillColor=#FF6666;fontColor=#FFFFFF;rounded=1;fontSize=14;fontStyle=0;strokeWidth=2;resizeParent=0;resizeLast=1;shadow=0;dashed=0;align=center;" vertex="1" parent="1">
          <mxGeometry x="580" y="420" width="160" height="103" as="geometry" />
        </mxCell>
        <mxCell id="5smV_ZLJznFOm1sXNjk2-14" value="网络问题&lt;br&gt;文件容量过大&lt;br&gt;文件类型限制&lt;br&gt;上传超时" style="text;html=1;align=center;verticalAlign=middle;resizable=0;points=[];autosize=1;" vertex="1" parent="5smV_ZLJznFOm1sXNjk2-7">
          <mxGeometry y="30" width="160" height="73" as="geometry" />
        </mxCell>
        <mxCell id="5smV_ZLJznFOm1sXNjk2-22" value="发布失败" style="swimlane;childLayout=stackLayout;horizontal=1;startSize=30;horizontalStack=0;fillColor=#FF6666;fontColor=#FFFFFF;rounded=1;fontSize=14;fontStyle=0;strokeWidth=2;resizeParent=0;resizeLast=1;shadow=0;dashed=0;align=center;" vertex="1" parent="1">
          <mxGeometry x="1180" y="430" width="160" height="83" as="geometry" />
        </mxCell>
        <mxCell id="5smV_ZLJznFOm1sXNjk2-23" value="网络问题&lt;br&gt;数据库更改状态异常&lt;br&gt;服务接口调用异常" style="text;html=1;align=center;verticalAlign=middle;resizable=0;points=[];autosize=1;" vertex="1" parent="5smV_ZLJznFOm1sXNjk2-22">
          <mxGeometry y="30" width="160" height="53" as="geometry" />
        </mxCell>
        <mxCell id="5smV_ZLJznFOm1sXNjk2-65" value="" style="whiteSpace=wrap;html=1;align=center;fillColor=#FFFFCC;" vertex="1" parent="1">
          <mxGeometry x="620" y="651.5" width="580" height="170" as="geometry" />
        </mxCell>
        <mxCell id="5smV_ZLJznFOm1sXNjk2-69" value="全部" style="text;html=1;resizable=0;autosize=1;align=center;verticalAlign=middle;points=[];fillColor=none;strokeColor=none;rounded=0;" vertex="1" parent="1">
          <mxGeometry x="890" y="790" width="40" height="20" as="geometry" />
        </mxCell>
        <mxCell id="5smV_ZLJznFOm1sXNjk2-68" value="已发布" style="swimlane;childLayout=stackLayout;horizontal=1;startSize=68;horizontalStack=0;fillColor=#004C99;fontColor=#FFFFFF;rounded=1;fontSize=14;fontStyle=0;strokeWidth=2;resizeParent=0;resizeLast=1;shadow=0;dashed=0;align=center;" vertex="1" parent="1">
          <mxGeometry x="1050" y="710" width="130" height="49" as="geometry" />
        </mxCell>
        <mxCell id="5smV_ZLJznFOm1sXNjk2-67" value="未发布" style="swimlane;childLayout=stackLayout;horizontal=1;startSize=68;horizontalStack=0;fillColor=#004C99;fontColor=#FFFFFF;rounded=1;fontSize=14;fontStyle=0;strokeWidth=2;resizeParent=0;resizeLast=1;shadow=0;dashed=0;align=center;" vertex="1" parent="1">
          <mxGeometry x="860" y="709" width="117.65" height="50" as="geometry" />
        </mxCell>
        <mxCell id="5smV_ZLJznFOm1sXNjk2-66" value="上传中" style="swimlane;childLayout=stackLayout;horizontal=1;startSize=69;horizontalStack=0;fillColor=#004C99;fontColor=#FFFFFF;rounded=1;fontSize=14;fontStyle=0;strokeWidth=2;resizeParent=0;resizeLast=1;shadow=0;dashed=0;align=center;" vertex="1" parent="1">
          <mxGeometry x="680" y="711" width="120" height="51" as="geometry" />
        </mxCell>
      </root>
    </mxGraphModel>
  </diagram>
</mxfile>
